<?xml version="1.0" standalone="no"?>
<!DOCTYPE svg PUBLIC "-//W3C//DTD SVG 20010904//EN"
 "http://www.w3.org/TR/2001/REC-SVG-20010904/DTD/svg10.dtd">
<svg version="1.0" xmlns="http://www.w3.org/2000/svg"
 width="840.000000pt" height="840.000000pt" viewBox="0 0 840.000000 840.000000"
 preserveAspectRatio="xMidYMid meet">
<metadata>
Created by potrace 1.14, written by Peter Selinger 2001-2017
</metadata>
<g transform="translate(0.000000,840.000000) scale(0.100000,-0.100000)"
fill="#000000" stroke="none">
<path d="M3958 8395 c-2 -2 -43 -6 -93 -9 -94 -7 -156 -13 -215 -22 -19 -4
-44 -7 -55 -8 -25 -3 -113 -17 -140 -22 -11 -3 -35 -7 -54 -10 -18 -3 -43 -8
-55 -11 -11 -2 -34 -6 -49 -9 -15 -2 -37 -8 -47 -14 -11 -6 -20 -9 -20 -6 0 2
-16 0 -36 -6 -20 -5 -44 -11 -53 -13 -69 -16 -177 -50 -179 -57 -2 -4 -7 -6
-12 -3 -6 4 -100 -25 -170 -52 -8 -4 -17 -7 -20 -7 -17 -4 -210 -82 -235 -94
-16 -9 -32 -17 -35 -17 -3 0 -27 -11 -54 -23 -27 -12 -51 -22 -53 -22 -3 0
-17 -9 -32 -19 -15 -11 -39 -23 -54 -26 -15 -4 -27 -10 -27 -14 0 -3 -29 -19
-65 -36 -36 -16 -65 -33 -65 -37 0 -5 -4 -8 -9 -8 -13 0 -165 -90 -172 -102
-3 -5 -10 -9 -15 -9 -5 1 -17 -6 -27 -14 -9 -8 -20 -15 -23 -15 -8 0 -107 -72
-115 -83 -3 -5 -9 -8 -13 -8 -3 1 -12 -3 -19 -9 -58 -47 -75 -59 -81 -53 -3 3
-6 2 -6 -3 0 -6 -24 -28 -52 -49 -29 -22 -60 -47 -69 -55 -8 -8 -40 -35 -69
-60 -30 -25 -69 -60 -88 -77 -19 -18 -35 -33 -38 -33 -7 0 -207 -205 -277
-285 -39 -44 -76 -85 -81 -91 -6 -6 -22 -26 -36 -44 -14 -18 -40 -49 -57 -69
-18 -20 -33 -41 -33 -48 0 -6 -3 -13 -8 -15 -11 -5 -102 -127 -102 -137 0 -5
-3 -11 -8 -13 -4 -1 -23 -28 -42 -58 -19 -30 -37 -57 -40 -60 -8 -7 -109 -179
-162 -275 -58 -107 -158 -321 -198 -426 -11 -30 -25 -63 -30 -74 -19 -41 -102
-304 -130 -410 -36 -141 -69 -295 -85 -395 -18 -123 -36 -264 -42 -341 -15
-191 -8 -664 12 -804 3 -25 16 -113 30 -210 6 -40 16 -101 21 -127 3 -15 5
-30 5 -33 0 -2 5 -19 10 -37 5 -18 12 -45 14 -61 3 -15 12 -53 21 -85 8 -31
17 -66 20 -77 3 -11 6 -24 8 -30 1 -5 8 -30 15 -55 39 -144 144 -425 208 -558
21 -42 38 -79 38 -82 3 -17 94 -186 168 -313 29 -48 56 -96 62 -107 5 -11 13
-20 17 -20 5 0 8 -5 8 -10 0 -6 4 -16 10 -23 5 -7 37 -52 70 -102 182 -275
486 -608 760 -834 14 -11 30 -25 37 -31 64 -53 242 -183 343 -249 69 -44 130
-84 135 -89 6 -4 24 -14 40 -22 17 -8 32 -18 35 -21 26 -31 567 -282 642 -298
4 -1 28 -10 53 -21 25 -11 45 -17 45 -15 0 2 12 -2 27 -10 15 -8 30 -12 35 -9
4 3 8 1 8 -4 0 -5 6 -9 13 -9 6 0 51 -12 98 -26 47 -15 96 -29 110 -31 13 -3
24 -5 24 -6 0 -1 7 -3 15 -5 25 -5 61 -13 150 -34 88 -20 147 -31 190 -36 14
-1 45 -6 70 -10 57 -11 62 -11 141 -19 36 -4 79 -10 95 -12 16 -3 162 -6 324
-8 301 -4 405 1 630 30 73 9 288 49 355 65 22 5 51 12 65 15 14 3 43 10 65 16
22 6 46 12 53 14 16 3 122 34 142 42 8 3 18 6 23 7 4 2 8 3 10 5 1 1 10 3 20
5 10 2 26 7 35 11 9 4 22 8 27 10 79 22 335 128 480 200 131 64 266 135 275
144 12 12 112 70 121 70 5 0 9 5 9 10 0 6 7 10 15 10 8 0 15 5 15 10 0 6 7 10
15 10 8 0 15 5 15 10 0 6 5 10 10 10 9 0 177 117 240 166 28 22 215 178 250
209 47 40 303 295 297 295 -3 0 12 17 32 38 51 53 115 130 198 241 40 53 77
101 83 108 5 7 10 15 10 18 0 3 18 30 40 59 22 29 40 58 40 64 0 7 4 12 9 12
5 0 14 14 21 30 7 17 16 30 21 30 5 0 9 4 9 8 0 5 21 45 48 90 60 102 82 142
80 145 -1 1 11 21 25 44 15 24 27 44 27 47 0 2 24 55 54 117 83 176 220 543
240 645 2 10 9 31 15 47 6 15 8 27 6 27 -2 0 0 11 5 25 5 14 12 36 14 48 3 12
14 65 24 117 11 52 23 111 26 130 3 19 7 44 10 55 6 33 16 97 21 145 3 25 7
61 10 80 14 108 20 242 20 465 0 257 -10 419 -31 545 -3 19 -8 46 -9 60 -11
75 -15 100 -25 150 -6 30 -13 69 -16 85 -3 23 -64 267 -88 355 -7 27 -88 265
-99 290 -6 14 -11 27 -12 30 -20 58 -114 268 -168 375 -56 110 -189 346 -209
370 -5 5 -34 48 -65 95 -56 84 -183 256 -219 295 -11 12 -39 45 -64 75 -128
156 -346 369 -530 519 -41 33 -85 70 -97 81 -12 11 -27 20 -33 20 -5 0 -10 5
-10 10 0 6 -7 10 -15 10 -8 0 -15 4 -15 8 0 4 -18 19 -40 32 -22 14 -40 28
-40 33 0 4 -6 7 -14 7 -8 0 -16 3 -18 8 -1 4 -30 25 -63 46 -33 21 -72 47 -87
57 -15 11 -31 19 -36 19 -4 0 -17 8 -28 18 -11 9 -35 25 -52 34 -51 27 -183
99 -230 124 -23 13 -43 24 -45 23 -1 0 -29 12 -62 27 -33 15 -63 27 -67 26 -5
-1 -8 2 -8 8 0 5 -8 10 -18 10 -10 0 -22 4 -28 8 -10 10 -132 58 -244 97 -41
15 -82 29 -90 32 -8 4 -17 7 -20 7 -3 1 -11 5 -17 9 -7 5 -13 6 -13 3 0 -3
-12 -1 -27 5 -16 6 -35 12 -43 14 -8 2 -58 16 -110 30 -52 15 -106 29 -120 31
-14 3 -51 12 -84 20 -32 8 -65 13 -72 10 -7 -3 -16 -1 -18 3 -5 8 -96 24 -195
36 -23 3 -46 7 -50 9 -3 2 -42 7 -86 11 -44 4 -98 9 -120 12 -45 5 -582 12
-587 8z"/>
</g>
</svg>
